<?xml version="1.0" encoding="UTF-8" standalone="no"?>
<svg
   xmlns:xlink="http://www.w3.org/1999/xlink"
   viewBox="0 0 416.49332 138.74667"
   xml:space="preserve"
   id="sew-shop-logo"
   version="1.1">
    <g transform="matrix(1.3333333,0,0,-1.3333333,0,138.74667)">
      <g transform="scale(0.1)">
        <g>
          <path
           d="m 2562.8,422.898 c -18.11,14.332 12.08,45.309 55.9,51.934 -14.93,-26.328 -23.39,-51.934 -55.9,-51.934 z M 2460.55,246.707 c 8.12,-38.09 13.99,-76.754 15.56,-115.703 0.4,-9.957 4.88,-34.4884 -5.31,-41.3907 -1.48,-1.0039 -3.35,-1.586 -5.08,-1.1289 -1.53,0.4023 -2.75,1.5429 -3.86,2.6601 -33.14,33.1135 -40.96,80.0005 -43.78,124.7935 -3.54,56.32 -6.65,113.421 3.99,169.214 -1.51,-7.886 8.22,-25.925 10.65,-33.851 3.45,-11.246 6.81,-22.524 10.02,-33.836 6.65,-23.399 12.73,-46.969 17.81,-70.758 z m -42.79,497.453 c 0.81,1.5 1.79,3.059 3.37,3.711 1.38,0.57 2.96,0.332 4.39,-0.082 36.44,-10.48 2.4,-75.965 -10.64,-91.922 4.83,5.914 -4.31,34.809 -4.83,42.043 -1.11,15.789 0.03,32.074 7.71,46.25 z M 2312.01,506.535 c -5.7,-28.215 -16.89,-55.328 -32.88,-79.273 -5.91,-8.844 -12.6,-17.403 -21.35,-23.453 -27.91,-19.313 -67.81,0.753 -81.6,28.386 -15.34,30.735 -16.99,67.489 -6.84,99.942 5.12,16.406 12.97,31.906 22.52,46.172 3.37,5.027 33.38,35.605 32.71,38.437 8.21,-34.601 17.57,-63.336 55.37,-71.531 8.36,-1.817 23.89,-0.063 30.94,-4.059 9.51,-5.39 3.35,-23.648 1.13,-34.621 z m -21.9,109.676 c 21.89,-1.328 24.85,-18.504 21.12,-39.563 -24.97,11.301 -42.68,26.266 -21.12,39.563 z M 1785.3,908.207 c 34.56,-36.352 21.77,-134.43 -31.7,-242.977 -15.7,26.985 7.51,204.895 31.7,242.977 z M 1554.34,278.602 c -12.27,-3.735 -26.1,-0.153 -36.16,7.785 -10.07,7.937 -16.59,19.785 -19.72,32.215 -12.54,49.769 39.38,89.269 68.07,122.863 0.83,0.969 23.12,-33.43 24.86,-37.254 17.49,-38.379 10.59,-111.109 -37.05,-125.609 z m -33.94,330.656 c -1.74,21.887 6.36,43.945 21.32,59.93 4.31,4.605 9.59,8.91 15.86,9.507 6.52,0.621 12.87,-2.984 17.13,-7.941 24.98,-29.008 4.11,-79.324 -13.98,-106.227 -1.93,-2.871 -4.13,-5.851 -7.38,-7.035 -0.35,-0.129 -0.69,-0.234 -1.04,-0.316 -16.91,-4.156 -31.05,41.219 -31.91,52.082 z m -640.619,-0.035 c 4.028,2.222 8.176,4.125 12.438,5.664 2.91,1.047 6.051,1.804 9.086,1.211 12.769,-2.493 19.687,-22.899 21.672,-33.719 2.511,-13.731 0.91,-28.754 -6.024,-41.024 -24.074,-42.609 -68.32,-63.953 -116.172,-48.746 10.778,40.778 38.938,94.504 79,116.614 z M 3118.45,565.055 c -9.3,-4.598 -19.37,-8.098 -27.77,-13.985 -40.03,-28.066 -82.48,-49.636 -130.37,-62.265 -64.71,-17.063 -130.18,-24.36 -196.65,-14.578 -23.19,3.41 -89.13,8.902 -79.81,46.203 12.27,49.109 -1.62,102.914 -27.43,144.613 -23.42,37.832 -72.83,53.957 -114.35,36.867 -41.38,-17.031 -69.69,-53.222 -89.96,-91.824 -3.25,-6.207 -19.06,-29.766 -17.39,-35.488 -3.71,12.711 -12.72,25.886 -10.17,39.652 3.54,19.148 20.77,33.91 28.23,51.641 7.28,17.277 10.68,36.925 12.63,54.828 3.45,31.605 -9.22,65.961 -47.74,56.636 -66.62,-16.117 -64.1,-100.035 -54.55,-153.187 2.43,-13.543 8.16,-33.156 -12.9,-34.859 -0.99,-0.082 -2.03,-0.075 -2.94,0.336 -1.91,0.863 -2.64,3.128 -3.22,5.136 -13.47,46.453 -49.69,74.246 -97.58,55.309 -36.02,-14.242 -76.46,-26.981 -102.2,-57.676 -35.75,-42.633 -32.15,-94.082 -48.15,-144.098 -9.03,-28.226 -22.68,-54.66 -37.3,-80.343 -11.01,-19.356 -42.05,-100 -76.15,-71.246 -31.19,26.308 -14.59,87.683 -11.97,121.871 4.03,52.8 8.33,105.668 7.39,158.668 -0.59,33.504 -17.91,70.461 -54.61,75.48 -29.01,3.969 -57.83,-14.894 -75.6,-35.558 -24.53,-28.536 -39.32,-63.536 -49.26,-99.543 -5.11,-18.547 -8.9,-37.434 -12.09,-56.403 -0.97,-5.785 -4.44,-53.472 -7.88,-54.609 -4.71,-1.551 -7.58,5.07 -8.08,10 -3.72,37.031 -7.8,74.031 -11.28,111.09 -2.84,30.164 -11.26,65.218 2.58,93.808 28.28,58.399 58.75,116.426 71.25,180.684 8.5,43.683 13.28,108.312 -33.2,133.086 -25.72,13.703 -55.17,3.722 -69.8,-20.836 -14.59,-24.508 -21.72,-56.57 -26.44,-84.352 -12.85,-75.672 -9.5,-152.117 -11.58,-228.488 -0.25,-9.215 -5.01,-20.543 -11.59,-26.937 -22.06,-21.481 -46.13,-40.887 -68.91,-61.668 -11.98,-10.926 -21.84,-11.622 -34.02,0.292 -13.31,13.016 -8.25,22.258 2.11,33.461 34.33,37.11 45.72,80.114 32.13,129.461 -11.39,41.332 -65.52,46.797 -95.39,23.297 -38.35,-30.16 -52.12,-71.898 -47.45,-119.168 1.66,-16.699 9.79,-32.754 14.95,-49.105 -35.45,2.984 -69.85,2.66 -93.69,33.801 -9.68,12.644 -11.52,32.851 -26.65,40.683 -23.42,12.11 -20.58,-42.719 -20.78,-53.601 -0.78,-41.621 -6.29,-83.149 -16.39,-123.532 -5.46,-21.855 -8.07,-50.613 -25.62,-66.914 -51.63,-47.965 -63.11,100.25 -66.39,119.887 -3.17,22.113 -0.79,66.273 -12.19,85.082 -19.31,31.856 -43.56,-5.637 -44.11,-31.016 -0.23,-10.472 -0.74,-20.996 -0.03,-31.421 5.11,-75.321 -5.06,-155.094 -49.94,-217.883 -3.75,-5.254 -8.5,-10.821 -14.94,-11.297 -8.92,-0.668 -15.14,8.48 -18.82,16.637 -28.7,63.668 -25.71,141.781 -25.75,210.082 -0.01,17.363 4.06,53.8 -16.53,62.281 -16.06,6.621 -33.14,-9.418 -37.56,-23.922 -5.12,-16.773 -8,-34.223 -12.13,-51.309 -15.764,-65.093 -47.115,-122.027 -87.037,-175.586 -19.465,-26.113 -51.742,-33.148 -80.442,-15.46 -21.629,13.328 -35.144,37.113 -41.421,61.73 -15.766,61.832 -2,84.715 54.96,100.18 18.997,5.152 36.895,14.261 52.25,26.574 31.446,25.219 50.922,63.558 50.235,104.117 -1.227,72.524 -78.492,82.863 -127.277,43.617 -21.075,-16.957 -36.778,-39.922 -49.77,-63.383 -3.238,-5.851 -34.293,-65.597 -30.965,-67.816 -18.703,12.449 -37.265,24.992 -55.773,37.707 -8.516,5.852 -22.153,14.41 -34.055,15.375 -1.719,-1.285 -3.59,-2.418 -5.535,-3.465 7.648,-24.312 30.598,-47.797 50.109,-61.722 50.832,-36.278 30.024,-85.789 39.844,-142.036 9.301,-53.25 37.328,-112.636 97.293,-119.781 45.434,-5.406 82.812,25.055 109.367,58.543 14.465,18.242 27.406,37.684 38.668,58.055 6.313,11.41 27.279,41.617 24.259,55.176 7.48,-33.551 14.72,-66.981 21.67,-100.633 4.09,-19.836 10.51,-39.926 23.96,-55.063 23.77,-26.742 64.85,-22.316 90.31,-0.398 34.52,29.711 47.63,78.902 52.58,122.449 10.61,-17.609 12.46,-40.246 26.41,-55.355 18.79,-20.371 53.38,-21.325 75.77,-6.821 26.42,17.114 39.79,47.598 48.32,76.727 6.55,22.34 12.09,44.965 17.11,67.691 1.45,6.535 15.74,62.45 8.29,63.891 28.34,-5.484 54.05,-19.899 83.45,-20.82 16.64,-0.52 33.04,6.738 49.73,4.785 18.25,-2.137 25.47,-17.535 36.08,-30.953 -18.18,-19.594 -35.91,-39.258 -54.69,-58.43 -25.87,-26.399 -41.49,-67.188 -34.25,-104.086 12.23,-62.277 93.44,-80.242 145.28,-58.742 65.71,27.254 79.68,101.281 58.84,163.019 -8.68,25.743 -24.98,43.965 -38.28,66.633 -4.19,7.125 72.79,68.641 82.16,74.008 4.04,-83.914 16.99,-166.227 32.65,-248.629 1.07,-5.625 2.16,-11.332 4.72,-16.453 14.28,-28.691 52.06,-2.477 55.4,20.383 11.89,81.449 14.11,168.047 45.68,245.011 6.92,16.872 16,33.973 31.47,43.614 8.88,5.531 20.94,7.988 29.57,2.082 7.48,-5.121 10.14,-14.774 11.82,-23.684 5.64,-30.012 3.56,-59.492 4.01,-89.746 0.6,-39.992 1.2,-79.984 1.8,-119.973 0.49,-32.875 5.45,-72.695 26.56,-99.39 26.98,-34.106 67.53,-14.985 91.68,11.965 36.75,36.757 54.52,93.226 77.09,138.972 12.03,-23.234 32.4,-42.039 56.53,-52.164 113.13,-47.484 180.26,90.813 184.32,183.196 0.66,14.863 5.98,20.785 22.89,22.546 0.59,0.063 15.2,-61.765 16.34,-66.753 13.04,-57.477 -1.74,-113.516 -5.71,-171.407 -4.56,-66.355 -2.49,-134.742 18.2,-198.511 11.94,-36.8168 39.52,-96.8403 88.26,-74.145 55.66,25.9258 57.36,106.633 48.97,157.629 -9.39,57.055 -31.77,110.539 -50.49,164.898 -14.72,42.75 -40.82,90.52 -39.8,136.465 0.67,30.406 14.73,58.703 28.47,85.832 11.34,22.356 23.19,45.375 42.5,61.356 10,8.273 22.49,14.543 35.45,13.785 20.82,-1.219 36.32,-19.578 46.37,-37.86 16.66,-30.32 25.73,-64.769 26.18,-99.363 0.12,-8.996 -0.8,-19.023 -7.47,-25.062 -4.31,-3.907 -10.25,-5.36 -15.93,-6.676 -32.67,-7.582 -62.48,-10.379 -81.85,-41.051 -10.79,-17.09 -23.64,-51.504 -7.79,-69.551 17.22,-19.609 54.82,-14.636 76.48,-7.089 25.43,8.859 47.5,27 60.61,50.57 10.12,18.183 19.68,17.539 37.72,14.363 49.11,-8.644 98.86,-18.035 148.44,-18.5 71.61,-0.668 138.82,22.559 201.11,57.453 24.94,13.969 47.56,32.227 70.44,49.578 5.37,4.067 7.52,12.371 11.15,18.727 -1.75,1.363 -3.51,2.73 -5.26,4.094" />
           <path d="m 1468.96,641.371 0.62,1.195 -0.03,-1.566 c -0.2,0.121 -0.4,0.246 -0.59,0.371" />
           <path d="m 1464.98,586.012 c 0.17,0.586 0.34,1.168 0.52,1.75 -0.6,-0.371 -1.19,-0.742 -1.79,-1.114 0.43,-0.21 0.85,-0.421 1.27,-0.636" />
           <path d="m 1440.7,571.914 c -0.26,0.664 -0.52,1.324 -0.78,1.988 -0.42,-0.55 -1.11,-1.066 -1.17,-1.656 -0.07,-0.621 0.45,-1.312 0.71,-1.973 0.41,0.547 0.83,1.094 1.24,1.641" />
           <path d="m 1006.03,497.742 1.52,-0.238 -0.53,1.906 -0.99,-1.668" />
           <path d="m 372.238,271.367 c -4.183,-10.652 -62.855,-4.5 -75.269,-24.808 -1.114,-1.821 -2.063,-4.016 -1.391,-6.039 0.61,-1.825 2.363,-2.989 4.055,-3.907 31.039,-16.824 61.383,6.168 72.605,34.754 z M 233.391,423.852 C 162.48,419.98 89.9023,387.27 66.1484,336.617 43.4141,288.148 54.8633,238.121 82.5039,194.172 134.176,112.016 227.359,62.8086 323.648,59.9375 437.961,56.5312 540.32,129.367 598.828,223.551 c 8.547,13.894 -149.039,63.824 -176.637,37.836 -6.211,-5.848 -10.273,-13.543 -15.16,-20.535 -20.008,-28.645 -56.14,-44.543 -90.746,-42.211 -33.64,2.265 -74.726,31.89 -43.531,67.293 5.808,6.593 13.57,11.148 21.461,15.015 41.418,20.305 115.371,-0.91 94.707,62.852 -19.586,60.433 -86.774,83.801 -155.531,80.051 z M 1140.2,101.602 c -49.05,0.066 -97.35,4.652 -147.579,12.351 -106.75,16.359 -208.598,49.633 -311.183,82.348 -9.704,3.101 -17.059,2.879 -23.59,-6.871 -28,-41.817 -61.399,-81.532 -101.641,-112.0902 C 427.105,-20.6914 238.961,-30.8398 113.121,77.6445 63.4023,120.508 13.0234,183.363 5.08984,250.559 -2.48438,314.727 34.3984,383.285 84.8008,421.395 c 56.0352,42.375 132.3012,55.804 200.7732,44.699 12.102,-1.965 24.074,-4.735 35.778,-8.403 58.238,-18.253 121.757,-66.757 107.363,-136.003 -1.203,-5.79 -2.942,-11.743 -1.641,-17.512 4.227,-18.746 37.758,-8.145 50.621,-9.524 36.543,-3.914 72.528,-13.113 106.434,-27.304 7.258,-3.039 14.648,-6.356 22.516,-6.625 37.96,-1.293 25.054,64.269 20.832,85.824 -9.75,49.762 -37.782,92.988 -76.68,125.043 -51.141,42.144 -114.469,63.363 -176.281,84.465 -66.664,22.757 -135.442,40.304 -200.633,67.175 -53.36,21.997 -115.9807,53.368 -149.4377,102.434 -33.72655,49.461 -31.3203,105.59 -0.375,156.031 28.1758,45.938 75.8555,82.52 121.5937,109.864 82.129,49.101 199.828,66.821 289.359,27.441 60.438,-26.59 104.723,-85.473 111.063,-151.492 2.992,-31.188 -2.629,-63.016 -15.359,-91.598 -6.758,-15.172 -15.145,-30.187 -25.153,-43.453 -6.644,-8.809 -15.234,-16.16 -25.41,-20.555 -1.953,-0.843 -4.148,-1.59 -6.172,-0.922 -16.945,5.571 15.871,69.348 18.875,80.403 10.977,40.414 5.199,85.109 -15.691,121.402 -23.563,40.934 -66.461,70.473 -112.86,78.961 -90.277,16.514 -169.136,-14.629 -235.074,-75.918 -28.144,-26.156 -54.699,-58.656 -55.949,-98.914 -0.8633,-27.832 11.2422,-55.062 29.48,-76.105 21.024,-24.258 48.75,-38.895 76.766,-53.469 110.899,-57.692 234.598,-81.059 347.438,-133.199 57.054,-26.364 112.597,-66.11 146.543,-120.625 36.734,-58.993 38.418,-134.77 9.57,-197.274 -1.184,-2.566 -2.442,-5.191 -2.594,-8.012 -0.793,-14.625 64.344,-28.378 74.313,-31.41 89.668,-27.285 181.668,-47.593 274.941,-57.449 90.01,-9.508 185.58,-15.953 273.58,9.695 25.07,7.309 49.34,17.364 72.18,30.036 22.68,12.57 32.65,-18.461 11.27,-29.586 -50.17,-26.118 -106.6,-37.414 -162.41,-43.45 -28.61,-3.097 -56.51,-4.5 -84.17,-4.464" />
      </g>
    </g>
  </g>
</svg>